<?xml version="1.0" encoding="UTF-8" standalone="no"?>
<svg
   xmlns:dc="http://purl.org/dc/elements/1.1/"
   xmlns:cc="http://creativecommons.org/ns#"
   xmlns:rdf="http://www.w3.org/1999/02/22-rdf-syntax-ns#"
   xmlns:svg="http://www.w3.org/2000/svg"
   xmlns="http://www.w3.org/2000/svg"
   version="1.1"
   id="svg2"
   viewBox="0 0 106 106"
   height="106"
   width="106">
  <defs
     id="defs4">
    <style
       type="text/css"
       id="style4140"><![CDATA[
    .fil0 {fill:white}
    .fil1 {fill:white;fill-rule:nonzero}
   ]]></style>
    <style
       type="text/css"
       id="style4167"><![CDATA[
    .fil0 {fill:#DC3300}
    .fil2 {fill:#333333;fill-rule:nonzero}
    .fil1 {fill:#DC3300;fill-rule:nonzero}
   ]]></style>
  </defs>
  <metadata
     id="metadata7">
    <rdf:RDF>
      <cc:Work
         rdf:about="">
        <dc:format>image/svg+xml</dc:format>
        <dc:type
           rdf:resource="http://purl.org/dc/dcmitype/StillImage" />
        <dc:title></dc:title>
      </cc:Work>
    </rdf:RDF>
  </metadata>
  <g
     transform="translate(0,-946.36216)"
     id="layer1">
    <path
       d="m 53,950.12853 c 27.63345,0 50.03515,22.04284 50.03515,49.23361 0,27.19076 -22.4017,49.23366 -50.03515,49.23366 -27.63344,0 -50.03515,-22.0429 -50.03515,-49.23366 0,-27.19077 22.40171,-49.23361 50.03515,-49.23361 z m -1.21993,31.24849 -27.05298,20.66048 0.0372,0.2991 c 2.85619,0.078 5.73923,0.1397 8.64987,0.1797 16.6849,0.2374 32.6027,-0.1702 47.11648,-1.1102 l -26.5327,-20.24742 0,-2.1892 20.84237,0 -3.67497,-3.44929 -3.67705,-3.44791 3.67705,-3.4486 3.67497,-3.44927 -20.84237,0 0,-0.8613 -2.21794,0 0,17.06394 z m -26.88211,23.27078 2.68112,21.8858 30.57633,0 7.56087,-14.6068 5.73716,14.2366 7.79797,0 2.02152,-22.5011 c -14.71992,0.9753 -30.90513,1.4019 -47.88715,1.1618 -2.85409,-0.04 -5.68339,-0.1003 -8.48787,-0.1763 z"
       class="fil0"
       id="_733777448"
       style="clip-rule:evenodd;fill:#ffffff;fill-rule:evenodd;image-rendering:optimizeQuality;shape-rendering:geometricPrecision;text-rendering:geometricPrecision" />
  </g>
</svg>
