<?xml version="1.0" encoding="UTF-8"?>
<!DOCTYPE svg PUBLIC "-//W3C//DTD SVG 1.1//EN" "http://www.w3.org/Graphics/SVG/1.1/DTD/svg11.dtd">
<svg version="1.1" xmlns="http://www.w3.org/2000/svg" xmlns:xlink="http://www.w3.org/1999/xlink" x="0" y="0" width="100" height="100" viewBox="0, 0, 100, 100">
  <g id="Layer_1">
    <path d="M50,0 C77.614,0 100,22.386 100,50 C100,77.614 77.614,100 50,100 C22.386,100 -0,77.614 -0,50 C-0,22.386 22.386,0 50,0 z M48.781,31.735 L21.747,52.717 L21.784,53.021 C24.638,53.1 27.519,53.163 30.428,53.203 C47.101,53.444 63.008,53.03 77.511,52.076 L50.997,31.513 L50.997,29.29 L71.825,29.29 L68.153,25.787 L64.478,22.285 L68.153,18.783 L71.825,15.28 L50.997,15.28 L50.997,14.405 L48.781,14.405 L48.781,31.735 z M21.918,55.368 L24.597,77.594 L55.152,77.594 L62.707,62.76 L68.44,77.218 L76.233,77.218 L78.253,54.367 C63.543,55.358 47.37,55.791 30.4,55.547 C27.547,55.506 24.72,55.445 21.918,55.368 z" fill="#D87000" id="favicon"/>
  </g>
</svg>
